<svg width="24" height="24" viewBox="0 0 24 24" xmlns="http://www.w3.org/2000/svg">
<path fill-rule="evenodd" clip-rule="evenodd" d="M12 4.51941L4.875 10.9943V19.125H8.625V15C8.625 14.5027 8.82254 14.0258 9.17417 13.6741C9.52581 13.3225 10.0027 13.125 10.5 13.125H13.5C13.9973 13.125 14.4742 13.3225 14.8258 13.6741C15.1775 14.0258 15.375 14.5027 15.375 15V19.125H19.125V10.9943L12 4.51941ZM10.7362 2.62764C11.0816 2.31246 11.5323 2.1377 12 2.1377C12.4677 2.1377 12.9184 2.31246 13.2638 2.62764C13.2644 2.62819 13.265 2.62874 13.2656 2.62929L20.7629 9.44238L20.7787 9.45706C20.9633 9.63139 21.1111 9.84089 21.2135 10.0732C21.3159 10.3055 21.3707 10.556 21.3749 10.8099L21.375 10.8281V19.5C21.375 19.9972 21.1775 20.4741 20.8258 20.8258C20.4742 21.1774 19.9973 21.375 19.5 21.375H15C14.5027 21.375 14.0258 21.1774 13.6742 20.8258C13.3225 20.4741 13.125 19.9972 13.125 19.5V15.375H10.875V19.5C10.875 19.9972 10.6775 20.4742 10.3258 20.8258C9.97419 21.1774 9.49728 21.375 9 21.375H4.5C4.00272 21.375 3.52581 21.1774 3.17417 20.8258C2.82254 20.4742 2.625 19.9972 2.625 19.5V10.8281L2.62515 10.8099C2.62925 10.556 2.68411 10.3056 2.7865 10.0732C2.88888 9.84089 3.03672 9.63139 3.22131 9.45706L3.23715 9.44238L10.7344 2.62929C10.735 2.62874 10.7356 2.62819 10.7362 2.62764Z"/>
</svg>
